<svg version="1.1" id="Layer_1" xmlns="http://www.w3.org/2000/svg" xmlns:xlink="http://www.w3.org/1999/xlink" x="0px" y="0px" width="125px" height="189.864px" viewBox="0 0 125 189.864" enable-background="new 0 0 125 189.864" xml:space="preserve">
<path class="flame-main" fill="#F36E21" d="M40.1,171.5c0,0,29.6-5.1,27.7-35.8S54.2,70.6,36.2,49.1c0,0-24.2,46.3-20.3,64.7S9.7,151.9,40.1,171.5z"/>
<path class="flame-main one" fill="#F6891F" d="M35.8,171.4c0,0-10.2-3-15.3-8.2s-9.3-16.8-9.3-16.8s-0.2-6.6-4.1-18.5c0,0,3.4,5,5.1,9.9
	c0,0-5.3-21.1,1.7-30.4c7-9.3,0.6-35.7-2.2-37.5c0,0,13.1,5.6,19.9,47.5c6.8,41.9,16.8,45.3,6.1,54L35.8,171.4z"/>
<path class="flame-main two" fill="#FFD04A" d="M43.1,66.4c0,0,11.5,24.8,3.6,40c-7.9,15.2-21.1,41.9-0.4,65C46.3,171.4,87.1,138.1,43.1,66.4z"/>
<path class="flame-main three" fill="#FDBA16" d="M60.6,90.2c0,0-25.6,48.1-14.4,81.2c0,0,35.1-17.2,22.5-46.9C56.1,94.8,60.6,102.6,60.6,90.2z"/>
<path class="flame-main four" fill="#F36E21" d="M64.7,80.6c0,0,2.3,43.4-3.8,61.8c-10,16.1-14.8,29-14.8,29S95.9,139.3,64.7,80.6z"/>
<path class="flame-main five" fill="#FDBA16" d="M21.3,89.4c0,0-15.6,67.6,10.5,77.7C58,177.2,28.3,116,21.3,89.4z"/>
<path class="flame" fill="#F36E21" d="M60.2,98.2c0,0,9,10.5,4.6,16.5C58.6,115,66,102.7,60.2,98.2z"/>
<path class="flame one" fill="#F36E21" d="M14.8,112.1c0,0-3.8,13.3,2.7,16.9C23.3,126.8,15.1,117.5,14.8,112.1z"/>
<path class="flame two" fill="#F36E21" d="M14.1,89.9c0,0-4,6.1-1.2,8.9C16.2,98.5,11.5,92.6,14.1,89.9z"/>
</svg>
