<?xml version="1.0" encoding="utf-8"?>
<!-- Generator: Adobe Illustrator 21.0.2, SVG Export Plug-In . SVG Version: 6.00 Build 0)  -->
<svg version="1.1" id="Layer_1" xmlns="http://www.w3.org/2000/svg" xmlns:xlink="http://www.w3.org/1999/xlink" x="0px" y="0px"
	 viewBox="0 0 382.7 1587.1" style="enable-background:new 0 0 382.7 1587.1;" xml:space="preserve">
<style type="text/css">
	.st0{fill:#2D9B96;}
	.st1{fill:#1A4240;}
	.st2{fill:#BBF9F4;}
	.st3{fill:#15726F;}
	.st4{fill:none;stroke:#15726F;stroke-width:3;stroke-miterlimit:10;}
	.st5{fill:#EFEFEF;}
	.st6{fill:#F5F5F5;}
</style>
<polygon class="st0" points="350.5,1175.4 324.7,1264.1 261.6,1155.2 284.9,1046.4 "/>
<polygon class="st1" points="23.5,1175.4 49.3,1264.1 112.4,1155.2 89.1,1046.4 "/>
<path class="st0" d="M120.5,1203.6c0,0-144.8-514.2,69.3-650l0.6,650H120.5z"/>
<path class="st2" d="M254.7,1203.6c0,0,133.5-514.2-63.9-650l-0.5,650H254.7z"/>
<circle class="st1" cx="188.7" cy="794.2" r="74.7"/>
<circle class="st2" cx="188.7" cy="794.2" r="52.8"/>
<circle class="st1" cx="190.3" cy="971.9" r="36.8"/>
<circle class="st1" cx="201" cy="665.9" r="3"/>
<circle class="st1" cx="201" cy="708.4" r="3"/>
<circle class="st1" cx="201" cy="920.1" r="3"/>
<circle class="st1" cx="198" cy="1023.5" r="3"/>
<circle class="st1" cx="255.5" cy="1152.2" r="3"/>
<circle class="st1" cx="223" cy="1152.2" r="3"/>
<circle class="st1" cx="201" cy="884" r="3"/>
<circle class="st1" cx="239.5" cy="665.9" r="3"/>
<path class="st1" d="M107.7,654.8h158.8c0,0-14-64.9-75.7-101.2C190.8,553.6,135.9,572.9,107.7,654.8z"/>
<polygon class="st3" points="120.5,1203.6 109.7,1160.1 266.5,1160.1 254.7,1203.6 "/>
<line class="st4" x1="190.3" y1="822.2" x2="211.7" y2="800.9"/>
<line class="st4" x1="194.3" y1="832.9" x2="222.3" y2="804.9"/>
<polygon class="st1" points="190.4,1036.9 161,1159.9 190.4,1273.6 220,1159.9 "/>
<path fill="#EFEFEF" d="M382.7,1587.1V1434c-6.8-0.7-13.7-1.1-20.7-1.1c-93.7,0-171.9,66.1-190.7,154.2H382.7z"/>
<path fill="#EFEFEF" d="M194.8,1587.1c0.1-2.4,0.1-4.8,0.1-7.2c0-107.7-87.3-195-195-195v202.2H194.8z"/>
<path fill="#F5F5F5" d="M0,1587.1h365.9c-24-80.5-98.6-139.2-186.9-139.2c-80.2,0-149.1,48.4-179,117.6V1587.1z"/>
</svg>
